<?xml version="1.0" encoding="UTF-8"?>
<svg width="450px" height="400px" viewBox="0 0 450 400" version="1.1" xmlns="http://www.w3.org/2000/svg" xmlns:xlink="http://www.w3.org/1999/xlink">
    <!-- Generator: Sketch 53.2 (72643) - https://sketchapp.com -->
    <title>ties</title>
    <desc>Created with Sketch.</desc>
    <g id="ties" stroke="none" stroke-width="1" fill="none" fill-rule="evenodd">
        <g id="Group" transform="translate(86.000000, 45.000000)" fill="#000000">
            <rect id="Rectangle" x="92" y="170" width="4" height="60"></rect>
            <path d="M44.7584673,17.0115625 C46.7584673,17.0115625 48.5084673,18.2115625 48.8084673,19.6115625 C49.1584673,21.6615625 47.9084673,23.9115625 45.6084673,23.9115625 C43.1084673,24.0115625 40.8584673,22.3115625 38.2584673,22.2115625 L38.2584673,41.6115625 C38.2584673,43.1115625 34.7584673,44.2615625 32.7084673,44.2615625 C31.0584673,44.2615625 30.9084673,43.6615625 30.9084673,43.0115625 L30.9084673,4.2115625 C30.9084673,2.9115625 29.5584673,1.5115625 27.6584673,1.0615625 C26.6084673,0.761562497 27.2584673,0.161562497 28.5084673,0.0115624972 C30.4084673,-0.138437503 36.0084673,1.2115625 37.2584673,1.7115625 C38.5584673,2.2115625 38.9084673,2.4115625 38.7584673,2.6615625 C38.6084673,2.9115625 38.2584673,3.6115625 38.2584673,5.1115625 L38.2584673,19.3115625 C41.2084673,18.1615625 41.2084673,17.0615625 44.7584673,17.0115625 Z M12.1084673,8.4615625 C13.6084673,8.4615625 16.6584673,9.1115625 16.5084673,9.6115625 C16.2584673,10.2615625 15.7584673,11.0615625 15.4584673,11.5615625 C21.3584673,11.9615625 25.1584673,15.2115625 25.1584673,21.0115625 C25.1584673,27.3615625 20.7084673,30.2115625 13.9084673,30.3115625 C6.95846733,30.4115625 2.45846733,27.3615625 2.45846733,21.0115625 C2.45846733,15.3115625 6.15846733,12.2615625 12.0584673,11.6115625 C12.2084673,11.2615625 12.3084673,10.7115625 12.3084673,10.3115625 C12.2584673,9.9115625 11.4584673,9.5115625 10.8584673,9.4115625 C10.3084673,9.3115625 10.8084673,8.4615625 12.1084673,8.4615625 Z M9.90846733,20.8615625 C9.90846733,25.4615625 11.4084673,28.0115625 13.9084673,28.0115625 C16.3584673,28.0115625 17.8584673,25.4615625 17.8584673,20.8615625 C17.8584673,16.1615625 16.3584673,13.6615625 13.9084673,13.6615625 C11.4084673,13.6615625 9.90846733,16.1615625 9.90846733,20.8615625 Z M13.6084673,98.9115625 L12.6584673,89.7115625 C12.5584673,88.5615625 12.0584673,87.9115625 10.0084673,87.7115625 C8.80846733,87.6115625 9.70846733,86.5615625 10.9584673,86.3615625 C12.7084673,86.0615625 17.1584673,86.3115625 18.6084673,86.5615625 C19.6084673,86.7615625 20.1084673,86.9115625 20.2584673,87.1115625 C22.3584673,87.1115625 27.5584673,87.0115625 28.8584673,86.8615625 C30.0084673,86.7115625 31.2084673,84.9115625 31.6084673,84.6115625 C32.4084673,84.0615625 38.2584673,86.8115625 38.8084673,87.5115625 C39.3584673,88.1615625 37.8084673,88.8615625 37.4584673,89.5615625 L35.9084673,95.6615625 C36.7584673,95.9615625 37.5084673,96.4115625 37.5084673,97.0615625 C37.5084673,98.1615625 36.2584673,98.1115625 34.8584673,98.1115625 C30.5584673,98.1115625 22.9084673,98.1615625 20.0084673,98.2615625 C18.7084673,99.3615625 13.7084673,100.511562 13.6084673,98.9115625 Z M11.5084673,71.9115625 L11.4084673,69.0115625 C11.3584673,67.9115625 10.8584673,67.3115625 9.00846733,67.2115625 C7.90846733,67.1615625 8.60846733,66.2115625 9.80846733,65.9115625 C11.0084673,65.6115625 16.5584673,65.9115625 17.9084673,66.1115625 C18.9084673,66.2615625 19.3584673,66.4115625 19.5084673,66.5615625 C21.2084673,66.5615625 26.1084673,66.5615625 28.5584673,66.4115625 L29.0084673,60.5115625 C26.7584673,60.5115625 18.7084673,60.6115625 16.4084673,60.7115625 C14.4084673,60.8115625 14.5584673,61.7115625 14.0584673,61.7115625 C13.0584673,61.7115625 10.2584673,60.3615625 9.45846733,59.1615625 C9.00846733,58.6615625 9.00846733,58.2615625 9.55846733,58.3115625 C10.1084673,58.3615625 11.7584673,58.8115625 15.1084673,58.8615625 C17.4584673,58.9115625 24.6584673,58.9115625 28.4584673,58.5615625 C29.6084673,58.4615625 30.8084673,56.6615625 31.2584673,56.3615625 C32.0084673,55.8115625 37.8584673,58.5115625 38.4584673,59.2615625 C38.9584673,59.8615625 37.4084673,60.4115625 37.1084673,61.1115625 L35.1584673,65.5615625 C36.1084673,65.8615625 36.9084673,66.3115625 36.9084673,66.9615625 C36.9084673,68.0615625 35.6584673,68.0115625 34.2084673,68.0115625 C29.9084673,68.0115625 22.0584673,68.1615625 19.2584673,68.2615625 L19.2584673,72.4115625 C19.2584673,73.6115625 19.6584673,73.8115625 20.7584673,73.8115625 C21.8084673,73.8115625 29.5584673,73.8115625 31.1584673,73.5115625 C32.6084673,73.2615625 33.7084673,70.5615625 34.7584673,70.5615625 C36.5084673,70.5615625 39.7084673,72.3615625 39.7084673,73.9115625 C39.7084673,75.2115625 38.6084673,75.2115625 36.8584673,75.3115625 C34.2084673,75.4615625 23.2084673,75.5615625 17.0584673,75.5615625 C13.8584673,75.5615625 11.6584673,75.7115625 11.5084673,71.9115625 Z M6.90846733,80.2115625 L38.0584673,79.8115625 C40.3084673,79.7615625 41.2084673,76.4115625 42.7584673,76.4115625 C43.6084673,76.4115625 46.6084673,78.5615625 47.1084673,80.4115625 C47.5084673,81.8115625 46.7584673,82.2115625 45.2084673,82.1615625 C34.2584673,81.5615625 15.0584673,81.8115625 9.00846733,82.5615625 C6.65846733,82.8615625 6.80846733,83.6615625 6.30846733,83.6615625 C5.10846733,83.6615625 1.30846733,81.9115625 0.308467329,80.5615625 C-0.141532671,79.9115625 -0.0915326711,79.5115625 0.408467329,79.5615625 C1.15846733,79.6615625 3.05846733,80.2615625 6.90846733,80.2115625 Z M29.8084673,88.7115625 L19.9584673,88.9615625 C19.9084673,89.2615625 19.9584673,89.6115625 19.9584673,90.0115625 L20.2584673,96.4615625 C22.0584673,96.4615625 27.3084673,96.4615625 29.5584673,96.3115625 L29.8084673,88.7115625 Z M30.9084673,131.861562 L30.9084673,114.211562 C30.9084673,112.911562 29.5584673,111.511562 27.7084673,111.061562 C26.6584673,110.761562 27.2584673,110.211562 28.5084673,110.061562 C30.4584673,109.861562 36.0584673,111.261562 37.3084673,111.711562 C38.6084673,112.211562 38.9084673,112.461562 38.8084673,112.661562 C38.6584673,112.911562 38.3084673,113.661562 38.3084673,115.111562 L38.3084673,125.211562 C41.2084673,124.011562 41.2584673,122.961562 44.8084673,122.961562 C46.8084673,122.961562 48.5084673,124.161562 48.8084673,125.511562 C49.2084673,127.611562 47.9584673,129.861562 45.6584673,129.861562 C43.1084673,129.961562 40.8584673,128.311562 38.3084673,128.111562 L38.3084673,130.511562 C38.3084673,132.011562 34.8084673,133.111562 32.7584673,133.111562 C31.1084673,133.111562 30.9084673,132.561562 30.9084673,131.861562 Z M21.1584673,141.311562 L21.1584673,143.211562 C23.4584673,143.211562 28.3084673,143.111562 30.4584673,143.011562 L30.4584673,139.011562 C30.4584673,137.811562 29.4084673,137.161562 27.8584673,136.661562 C26.7584673,136.361562 27.5584673,135.711562 28.9584673,135.661562 C30.6084673,135.611562 34.8584673,136.211562 36.4584673,136.711562 C38.1084673,137.261562 38.4584673,137.561562 38.3084673,137.811562 C38.1584673,138.011562 37.8084673,138.811562 37.8084673,140.311562 L37.8084673,152.361562 C37.8084673,153.861562 34.1084673,154.861562 32.1584673,154.861562 C30.6084673,154.861562 30.4584673,154.361562 30.4584673,153.711562 L30.4584673,151.911562 L21.1584673,152.161562 C21.1584673,153.611562 17.8584673,154.661562 15.9084673,154.661562 C14.3584673,154.661562 14.1584673,154.111562 14.1584673,153.461562 L14.0084673,140.511562 C14.0084673,139.311562 12.8084673,138.611562 11.2584673,138.261562 C10.0584673,138.011562 10.8584673,137.361562 12.2584673,137.161562 C13.8584673,136.961562 18.1584673,137.511562 19.7584673,137.861562 C21.4584673,138.261562 21.7584673,138.561562 21.7084673,138.861562 C21.6084673,139.111562 21.1584673,139.261562 21.1584673,141.311562 Z M30.4584673,144.761562 L21.1584673,144.961562 L21.1584673,150.411562 C23.4584673,150.361562 28.3084673,150.261562 30.4584673,150.161562 L30.4584673,144.761562 Z M5.20846733,130.261562 L4.95846733,120.611562 C4.90846733,119.161562 3.90846733,118.761562 1.85846733,118.611562 C0.658467329,118.511562 1.25846733,117.761562 2.50846733,117.411562 C4.50846733,116.811562 9.50846733,117.311562 10.9584673,117.561562 C11.5584673,117.661562 12.0084673,117.711562 12.2584673,117.811562 C14.8084673,117.811562 16.8584673,117.711562 17.5584673,117.561562 C18.6584673,117.361562 19.6584673,114.661562 20.6084673,114.661562 C22.0584673,114.661562 24.9584673,116.561562 24.9584673,118.061562 C24.9584673,119.161562 23.5584673,119.211562 22.1084673,119.311562 C21.2584673,119.361562 16.7084673,119.461562 12.4084673,119.511562 C12.3584673,119.911562 12.3584673,120.361562 12.3584673,120.911562 L12.3584673,128.611562 C12.3584673,129.511562 12.9084673,129.511562 14.1084673,129.461562 C18.2084673,129.261562 25.5584673,127.561562 29.4084673,125.911562 C30.6584673,125.361562 30.6084673,126.211562 29.7084673,127.161562 C28.6084673,128.361562 27.2584673,129.061562 26.0584673,129.761562 C23.1584673,131.361562 14.9584673,134.361562 8.00846733,134.711562 C6.60846733,134.761562 5.25846733,132.161562 5.20846733,130.261562 Z M8.10846733,200.111562 L17.8584673,199.961562 L17.6584673,189.311562 C17.6084673,188.011562 16.7084673,187.661562 14.7584673,187.461562 C13.6584673,187.361562 14.7084673,186.311562 15.9084673,186.161562 C17.7584673,185.961562 22.6084673,186.361562 23.9584673,186.611562 C25.3084673,186.811562 25.6584673,187.111562 25.5584673,187.511562 C25.5584673,187.761562 25.2084673,188.661562 25.1584673,189.761562 L24.8084673,199.861562 L36.9084673,199.661562 C39.6084673,199.611562 40.2584673,196.311562 41.8084673,196.311562 C42.6584673,196.311562 45.6084673,198.461562 46.1584673,200.311562 C46.5584673,201.711562 45.7584673,202.111562 44.2584673,202.061562 C34.7084673,201.561562 21.1584673,201.761562 10.7584673,202.411562 C7.90846733,202.611562 8.05846733,203.611562 7.55846733,203.611562 C6.35846733,203.611562 2.50846733,201.811562 1.55846733,200.461562 C1.05846733,199.811562 1.10846733,199.411562 1.65846733,199.461562 C2.35846733,199.561562 4.30846733,200.161562 8.10846733,200.111562 Z M30.2584673,173.461562 C31.4084673,173.411562 32.6084673,171.311562 33.0084673,171.061562 C33.8084673,170.461562 39.4084673,173.061562 39.9584673,173.761562 C40.5084673,174.411562 39.1084673,175.211562 39.0084673,176.011562 C38.3084673,181.211562 36.0084673,189.461562 35.1084673,191.111562 C34.2584673,192.561562 31.5584673,193.061562 30.1084673,193.061562 C28.5584673,193.061562 28.2584673,192.561562 28.3584673,191.911562 C29.1584673,187.711562 30.5084673,180.861562 30.6584673,175.411562 C28.4084673,175.411562 18.2084673,175.561562 15.9084673,175.661562 C13.8584673,175.761562 14.0084673,176.611562 13.5584673,176.611562 C12.5084673,176.611562 9.75846733,175.261562 8.90846733,174.061562 C8.50846733,173.561562 8.50846733,173.211562 9.00846733,173.261562 C9.60846733,173.311562 11.2084673,173.711562 14.6084673,173.761562 C16.9584673,173.811562 26.4584673,173.811562 30.2584673,173.461562 Z" id="아름답고" fill-rule="nonzero"></path>
            <path d="M80.7844936,10.9194243 L80.7844936,12.6694243 C82.6844936,12.6694243 85.2344936,12.5694243 87.0844936,12.4694243 L87.0844936,7.71942432 C87.0844936,6.51942432 86.0844936,5.91942432 84.5344936,5.41942432 C83.4344936,5.06942432 84.2844936,4.46942432 85.6344936,4.41942432 C87.2844936,4.36942432 91.2344936,4.91942432 92.8844936,5.46942432 C94.4344936,6.01942432 94.7844936,6.26942432 94.6344936,6.51942432 C94.4844936,6.76942432 94.1844936,7.51942432 94.1844936,9.01942432 L94.1844936,21.5194243 C94.1844936,22.9694243 90.7344936,24.0194243 88.8344936,24.0194243 C87.2844936,24.0194243 87.0844936,23.4694243 87.0844936,22.8194243 L87.0844936,21.0194243 L80.7844936,21.2694243 L80.7844936,21.7194243 C80.7844936,23.2194243 77.3844936,24.2194243 75.3844936,24.2194243 C73.8844936,24.2194243 73.7344936,23.7194243 73.7344936,23.0694243 L73.7344936,10.1694243 C73.7344936,8.96942432 72.5344936,8.31942432 70.9344936,7.96942432 C69.8344936,7.71942432 70.5844936,7.06942432 71.9344936,6.86942432 C73.5844936,6.66942432 77.7844936,7.21942432 79.4344936,7.56942432 C81.0344936,7.96942432 81.1344936,8.26942432 81.0844936,8.46942432 C80.9844936,8.76942432 80.7844936,8.96942432 80.7844936,10.9194243 Z M106.884494,37.9194243 C108.684494,38.6694243 109.984494,40.6694243 109.384494,42.5194243 C108.584494,44.6194243 106.034494,45.0194243 104.184494,43.7694243 C101.484494,41.9694243 100.034494,39.4694243 95.3344936,38.0694243 C90.2844936,43.3694243 82.5344936,43.8194243 78.5844936,44.0194243 C75.5344936,44.1694243 74.6344936,42.8694243 76.0344936,42.6694243 C83.3344936,41.7194243 88.9344936,36.9694243 89.5344936,34.2194243 C87.9344936,34.2694243 86.6344936,34.3694243 85.6344936,34.4694243 C83.5844936,34.6694243 83.7344936,35.4194243 83.2844936,35.4194243 C82.2344936,35.4194243 78.9844936,33.9194243 78.1844936,32.7194243 C77.7344936,32.2694243 77.7344936,31.8694243 78.2844936,31.9194243 C78.8344936,31.9694243 80.4844936,32.4694243 83.8344936,32.4194243 C89.0344936,32.4194243 94.1844936,32.3694243 99.3344936,32.2694243 C101.434494,32.2194243 102.334494,29.3694243 103.784494,29.3694243 C104.634494,29.3694243 107.434494,31.1194243 107.934494,32.8694243 C108.334494,34.1694243 107.584494,34.6194243 106.134494,34.5194243 C102.784494,34.3194243 99.4844936,34.1694243 96.4844936,34.1194243 C97.5844936,34.6694243 97.6844936,34.9694243 97.0344936,36.0194243 C96.9844936,36.0694243 96.9344936,36.1194243 96.9344936,36.1694243 C99.4344936,36.3694243 103.384494,36.3194243 106.884494,37.9194243 Z M107.784494,5.06942432 L107.784494,24.2694243 C107.784494,25.8194243 104.284494,26.9194243 102.234494,26.9194243 C100.584494,26.9194243 100.384494,26.3694243 100.384494,25.6694243 L100.384494,4.16942432 C100.384494,2.86942432 99.0344936,1.46942432 97.1844936,1.01942432 C96.1344936,0.719424319 96.7344936,0.119424319 97.9844936,0.0194243193 C99.9344936,-0.180575681 105.534494,1.21942432 106.784494,1.66942432 C108.084494,2.16942432 108.434494,2.41942432 108.284494,2.61942432 C108.134494,2.86942432 107.784494,3.61942432 107.784494,5.06942432 Z M93.5344936,30.2694243 C90.8344936,29.9194243 89.0844936,28.8194243 87.1844936,26.4194243 C85.9344936,24.9194243 85.5344936,24.0194243 87.5344936,24.7694243 C90.0344936,25.6694243 91.9344936,25.5194243 95.0344936,25.3694243 C97.7844936,25.2194243 100.184494,26.0694243 99.0844936,28.6694243 C98.4344936,30.2194243 96.0344936,30.6194243 93.5344936,30.2694243 Z M87.0844936,14.1694243 L80.7844936,14.4194243 L80.7844936,19.5694243 C82.6844936,19.5694243 85.2344936,19.4694243 87.0844936,19.3694243 L87.0844936,14.1694243 Z M81.8844936,68.2694243 L81.8844936,82.2194243 C81.8844936,83.1194243 82.6344936,83.1194243 83.4844936,83.0694243 C87.5344936,82.8194243 94.8844936,81.2694243 98.7844936,79.6194243 C99.0344936,79.5194243 99.2844936,79.4694243 99.4344936,79.4694243 L99.4344936,59.1694243 C99.4344936,57.8694243 98.1344936,56.4694243 96.2344936,56.0194243 C95.1844936,55.7194243 95.7844936,55.1194243 97.0344936,54.9694243 C98.9844936,54.8194243 104.584494,56.1694243 105.834494,56.6694243 C107.134494,57.1694243 107.484494,57.3694243 107.334494,57.6194243 C107.184494,57.8694243 106.834494,58.5694243 106.834494,60.0694243 L106.834494,74.2694243 C109.834494,73.1194243 109.784494,72.0194243 113.334494,71.9694243 C115.334494,71.9694243 117.084494,73.1694243 117.384494,74.5694243 C117.734494,76.6194243 116.484494,78.8694243 114.184494,78.8694243 C111.684494,78.9694243 109.434494,77.3194243 106.834494,77.1694243 L106.834494,96.5694243 C106.834494,98.0694243 103.334494,99.2194243 101.284494,99.2194243 C99.6344936,99.2194243 99.4344936,98.6194243 99.4344936,97.9694243 L99.4344936,80.4694243 L99.0844936,80.8694243 C97.9844936,82.0694243 96.6344936,82.7694243 95.4344936,83.4694243 C92.4844936,85.0694243 84.2844936,88.0694243 77.3844936,88.4194243 C75.9844936,88.4694243 74.5844936,85.8694243 74.5344936,83.9694243 L74.2844936,68.0194243 C74.2344936,66.5694243 73.2344936,66.1694243 71.2344936,65.9694243 C70.0344936,65.8694243 70.5844936,65.1694243 71.8344936,64.7694243 C73.8844936,64.2194243 79.0344936,64.6694243 80.4844936,64.9194243 C81.8844936,65.1694243 82.3344936,65.3194243 82.2344936,65.6194243 C82.0844936,65.8694243 81.8844936,66.6194243 81.8844936,68.2694243 Z M81.5844936,124.819424 C80.8844936,124.819424 79.1344936,125.019424 77.8844936,125.169424 C75.9344936,125.419424 76.1344936,126.119424 75.6844936,126.119424 C74.6844936,126.119424 71.7344936,124.669424 70.8844936,123.569424 C70.4844936,123.069424 70.4344936,122.769424 70.9844936,122.819424 C71.4844936,122.869424 72.2344936,123.119424 75.0344936,123.269424 C76.8844936,123.369424 80.4844936,123.069424 81.0844936,122.969424 C82.1344936,122.819424 83.1844936,120.369424 83.6344936,120.119424 C84.3344936,119.519424 90.0844936,122.369424 90.5844936,123.069424 C91.0844936,123.669424 89.5344936,124.569424 89.2844936,125.269424 C88.4844936,127.369424 87.5844936,129.369424 86.6344936,131.269424 L86.6844936,131.269424 C87.8344936,131.369424 90.1844936,131.419424 91.7844936,131.319424 L91.7844936,118.719424 C91.7844936,117.419424 90.4344936,116.019424 88.5844936,115.569424 C87.5344936,115.269424 88.1344936,114.669424 89.3844936,114.569424 C91.3344936,114.369424 96.3344936,115.269424 97.5844936,115.769424 C98.8844936,116.219424 99.2344936,116.469424 99.0844936,116.719424 C98.9344936,116.969424 98.6344936,117.669424 98.6344936,119.169424 L98.6344936,149.169424 C98.6344936,150.669424 95.6844936,151.819424 93.6344936,151.819424 C91.9844936,151.819424 91.7844936,151.219424 91.7844936,150.569424 L91.7844936,133.219424 L88.9844936,133.369424 C87.8344936,133.519424 87.8344936,133.869424 87.7344936,133.869424 C87.2844936,133.869424 86.4844936,133.419424 85.7844936,132.819424 C83.1844936,137.469424 79.8344936,141.369424 74.9344936,143.819424 C73.9844936,144.319424 71.9844936,144.819424 71.0344936,144.819424 C69.7344936,144.819424 69.8344936,144.319424 70.3844936,143.919424 C76.8844936,139.319424 80.3844936,129.919424 81.5844936,124.819424 Z M108.784494,114.819424 L108.784494,151.569424 C108.784494,153.069424 105.534494,154.219424 103.434494,154.219424 C101.834494,154.219424 101.634494,153.619424 101.634494,152.969424 L101.634494,114.169424 C101.634494,112.869424 100.284494,111.469424 98.4344936,111.019424 C97.3844936,110.719424 97.9844936,110.119424 99.2344936,109.969424 C101.134494,109.819424 106.534494,110.969424 107.784494,111.419424 C109.084494,111.919424 109.434494,112.169424 109.284494,112.369424 C109.134494,112.619424 108.784494,113.369424 108.784494,114.819424 Z" id="빛나게" fill-rule="nonzero"></path>
            <path d="M259.662376,108.713393 L259.662376,117.513393 C260.612376,117.463393 261.612376,117.413393 262.612376,117.413393 L262.612376,104.213393 C262.612376,102.913393 261.262376,101.513393 259.412376,101.063393 C258.312376,100.763393 258.962376,100.163393 260.212376,100.013393 C262.112376,99.8633929 267.512376,101.013393 268.762376,101.463393 C270.062376,101.963393 270.362376,102.213393 270.262376,102.413393 C270.112376,102.663393 269.762376,103.413393 269.762376,104.863393 L269.762376,123.363393 C269.762376,124.913393 266.512376,126.013393 264.412376,126.013393 C262.812376,126.013393 262.612376,125.413393 262.612376,124.763393 L262.612376,119.313393 C261.612376,119.313393 260.612376,119.413393 259.662376,119.413393 L259.662376,124.813393 C259.662376,126.363393 257.112376,127.463393 255.062376,127.463393 C253.462376,127.463393 253.262376,126.863393 253.262376,126.213393 L253.262376,108.313393 C253.262376,107.013393 251.912376,105.613393 250.012376,105.113393 C248.962376,104.813393 249.612376,104.263393 250.862376,104.113393 C252.762376,103.913393 257.412376,104.813393 258.662376,105.313393 C259.962376,105.813393 260.312376,106.013393 260.162376,106.263393 C260.012376,106.513393 259.662376,107.213393 259.662376,108.713393 Z M234.062376,126.163393 L233.062376,113.413393 C233.012376,112.263393 232.512376,111.663393 230.562376,111.463393 C229.412376,111.363393 230.212376,110.363393 231.412376,110.163393 C233.112376,109.863393 237.312376,110.113393 238.712376,110.363393 C239.612376,110.563393 240.062376,110.663393 240.212376,110.813393 C240.812376,110.813393 241.862376,110.813393 242.962376,110.713393 C244.062376,110.563393 245.112376,108.463393 245.512376,108.213393 C246.262376,107.613393 251.412376,110.463393 252.012376,111.113393 C252.462376,111.763393 251.012376,112.413393 250.712376,113.163393 L248.862376,122.263393 C249.912376,122.563393 250.862376,123.063393 250.862376,123.763393 C250.862376,124.813393 249.662376,124.763393 248.262376,124.763393 C244.162376,124.763393 242.162376,124.813393 240.262376,124.913393 L240.262376,125.063393 C240.312376,126.213393 234.212376,127.963393 234.062376,126.163393 Z M268.412376,137.863393 C270.212376,138.713393 271.462376,140.763393 270.712376,142.563393 C269.862376,144.663393 267.262376,144.913393 265.462376,143.613393 C262.912376,141.763393 260.412376,139.713393 255.912376,138.163393 C250.712376,142.663393 243.612376,144.013393 240.112376,144.163393 C237.012376,144.313393 236.112376,143.013393 237.512376,142.813393 C244.512376,141.813393 250.262376,135.863393 251.612376,133.563393 C251.812376,133.213393 252.012376,132.763393 251.362376,132.163393 C249.612376,132.213393 248.162376,132.313393 247.112376,132.413393 C245.062376,132.613393 245.212376,133.413393 244.762376,133.413393 C243.762376,133.413393 240.462376,131.913393 239.662376,130.713393 C239.212376,130.213393 239.212376,129.863393 239.762376,129.913393 C240.312376,129.963393 241.962376,130.463393 245.312376,130.413393 C250.512376,130.363393 255.662376,130.313393 260.812376,130.213393 C262.962376,130.163393 263.812376,127.363393 265.312376,127.363393 C266.112376,127.363393 268.962376,129.063393 269.412376,130.863393 C269.812376,132.163393 269.062376,132.563393 267.612376,132.463393 C264.662376,132.263393 261.712376,132.163393 258.962376,132.113393 C260.062376,132.663393 260.162376,132.963393 259.512376,133.963393 C259.012376,134.813393 258.462376,135.513393 257.862376,136.213393 C260.712376,136.363393 265.262376,136.313393 268.412376,137.863393 Z M240.212376,123.063393 C241.062376,123.063393 242.662376,123.113393 243.862376,123.013393 L244.062376,112.563393 L240.062376,112.663393 C240.012376,112.963393 240.012376,113.313393 240.062376,113.713393 L240.212376,123.063393 Z M241.862376,163.463393 C243.362376,163.463393 246.462376,164.113393 246.262376,164.613393 C246.012376,165.263393 245.512376,166.063393 245.212376,166.563393 C250.412376,166.913393 254.012376,169.463393 254.812376,174.013393 C255.112376,174.063393 255.562376,174.113393 256.162376,174.113393 C256.962376,174.163393 259.212376,174.163393 261.362376,174.063393 L261.362376,159.213393 C261.362376,157.913393 260.012376,156.513393 258.162376,156.063393 C257.112376,155.763393 257.712376,155.163393 258.962376,155.013393 C260.912376,154.863393 266.512376,156.213393 267.762376,156.713393 C269.062376,157.213393 269.362376,157.413393 269.262376,157.663393 C269.112376,157.913393 268.762376,158.613393 268.762376,160.113393 L268.762376,196.613393 C268.762376,198.113393 265.262376,199.263393 263.212376,199.263393 C261.562376,199.263393 261.362376,198.663393 261.362376,198.013393 L261.362376,175.913393 C259.662376,176.013393 258.012376,176.113393 257.662376,176.113393 C256.562376,176.213393 256.512376,176.613393 256.362376,176.613393 C256.062376,176.613393 255.512376,176.313393 254.962376,175.913393 L254.962376,176.013393 C254.962376,182.363393 250.462376,185.213393 243.662376,185.313393 C236.712376,185.413393 232.212376,182.363393 232.212376,176.013393 C232.212376,170.313393 235.912376,167.213393 241.862376,166.613393 C241.962376,166.263393 242.062376,165.713393 242.062376,165.313393 C242.012376,164.913393 241.212376,164.513393 240.612376,164.413393 C240.062376,164.313393 240.562376,163.463393 241.862376,163.463393 Z M239.662376,175.863393 C239.662376,180.463393 241.162376,183.013393 243.662376,183.013393 C246.112376,183.013393 247.612376,180.463393 247.612376,175.863393 C247.612376,171.163393 246.112376,168.663393 243.662376,168.663393 C241.162376,168.663393 239.662376,171.163393 239.662376,175.863393 Z M268.762376,215.113393 L268.762376,251.613393 C268.762376,253.113393 265.262376,254.263393 263.212376,254.263393 C261.562376,254.263393 261.362376,253.663393 261.362376,253.013393 L261.362376,214.213393 C261.362376,212.913393 260.012376,211.513393 258.162376,211.063393 C257.112376,210.763393 257.712376,210.163393 258.962376,210.013393 C260.912376,209.863393 266.512376,211.213393 267.762376,211.713393 C269.062376,212.213393 269.412376,212.413393 269.262376,212.663393 C269.112376,212.913393 268.762376,213.613393 268.762376,215.113393 Z M245.712376,222.963393 C244.012376,223.013393 242.362376,223.013393 240.212376,223.213393 C238.262376,223.413393 238.412376,224.213393 237.962376,224.213393 C237.012376,224.213393 234.012376,222.763393 233.162376,221.663393 C232.762376,221.163393 232.712376,220.813393 233.262376,220.863393 C233.762376,220.913393 235.062376,221.363393 238.062376,221.363393 C240.062376,221.363393 244.262376,221.163393 245.262376,221.013393 C246.412376,220.813393 247.562376,218.313393 247.962376,218.113393 C248.812376,217.613393 254.862376,220.513393 255.412376,221.213393 C255.962376,221.863393 254.262376,222.913393 254.012376,223.613393 C252.912376,226.713393 251.262376,229.813393 249.212376,232.613393 C252.512376,233.463393 255.562376,234.563393 257.412376,237.063393 C258.512376,238.663393 258.662376,241.463393 257.362376,242.763393 C255.712376,244.313393 253.112376,243.813393 251.962376,242.163393 C250.762376,240.363393 249.212376,237.013393 247.212376,235.113393 C243.612376,239.213393 239.162376,242.513393 234.412376,244.113393 C233.962376,244.313393 232.062376,244.813393 231.062376,244.813393 C229.812376,244.813393 229.812376,244.313393 230.312376,243.963393 C238.912376,238.463393 243.862376,229.813393 245.712376,222.963393 Z M235.462376,295.213393 L235.212376,279.263393 C235.162376,277.813393 234.162376,277.413393 232.162376,277.213393 C230.962376,277.113393 231.562376,276.413393 232.762376,276.013393 C234.812376,275.463393 239.812376,275.913393 241.212376,276.163393 C241.862376,276.313393 242.312376,276.363393 242.562376,276.463393 C245.012376,276.463393 247.312376,276.363393 248.012376,276.213393 C249.112376,275.963393 250.112376,273.313393 251.012376,273.313393 C252.512376,273.313393 255.412376,275.213393 255.412376,276.713393 C255.412376,277.813393 254.012376,277.863393 252.562376,277.963393 C251.712376,278.013393 246.962376,278.113393 242.662376,278.113393 C242.612376,278.513393 242.612376,278.963393 242.612376,279.513393 L242.612376,292.713393 C242.612376,293.663393 242.812376,293.713393 244.512376,293.613393 C247.912376,293.413393 256.112376,291.913393 260.412376,290.313393 L260.412376,269.213393 C260.412376,267.913393 259.112376,266.513393 257.212376,266.063393 C256.162376,265.763393 256.762376,265.163393 258.012376,265.013393 C259.962376,264.863393 265.562376,266.213393 266.812376,266.713393 C268.112376,267.213393 268.462376,267.413393 268.312376,267.663393 C268.162376,267.913393 267.812376,268.613393 267.812376,270.113393 L267.812376,284.313393 C270.812376,283.163393 270.762376,282.063393 274.312376,282.013393 C276.312376,282.013393 278.062376,283.213393 278.362376,284.613393 C278.712376,286.663393 277.462376,288.913393 275.162376,288.913393 C272.662376,289.013393 270.412376,287.363393 267.812376,287.213393 L267.812376,306.613393 C267.812376,308.113393 264.312376,309.263393 262.262376,309.263393 C260.612376,309.263393 260.412376,308.663393 260.412376,308.013393 L260.412376,291.863393 C259.712376,292.463393 258.812376,293.013393 257.662376,293.713393 C253.512376,296.113393 243.762376,299.313393 238.312376,299.663393 C236.912376,299.713393 235.512376,297.113393 235.462376,295.213393 Z" id="맺어지다" fill-rule="nonzero"></path>
        </g>
    </g>
</svg>